<?xml version="1.0" standalone="no"?>
<!DOCTYPE svg PUBLIC "-//W3C//DTD SVG 20010904//EN"
 "http://www.w3.org/TR/2001/REC-SVG-20010904/DTD/svg10.dtd">
<svg version="1.0" xmlns="http://www.w3.org/2000/svg"
 width="308.000000pt" height="208.000000pt" viewBox="0 0 308.000000 208.000000"
 preserveAspectRatio="xMidYMid meet">

<g transform="translate(0.000000,208.000000) scale(0.100000,-0.100000)"
fill="#000000" stroke="none">
<path d="M503 1253 c59 -2 155 -2 215 0 59 1 10 3 -108 3 -118 0 -167 -2 -107
-3z"/>
<path d="M428 1193 c10 -53 9 -294 -1 -375 -7 -58 -6 -68 7 -68 9 0 16 11 18
27 4 35 27 41 158 41 131 0 154 -6 158 -41 2 -16 9 -27 18 -27 12 0 14 12 7
78 -10 93 -10 324 0 370 l7 32 -190 0 -189 0 7 -37z m342 -18 l0 -35 -160 0
-160 0 0 35 0 35 160 0 160 0 0 -35z m0 -100 l0 -35 -160 0 -160 0 0 35 0 35
160 0 160 0 0 -35z m-2 -101 l-3 -36 -155 0 -155 1 -3 36 -3 35 161 0 161 0
-3 -36z m2 -99 l0 -35 -160 0 -160 0 0 35 0 35 160 0 160 0 0 -35z"/>
<path d="M540 1175 c0 -6 30 -10 70 -10 40 0 70 4 70 10 0 6 -30 10 -70 10
-40 0 -70 -4 -70 -10z"/>
<path d="M540 1075 c0 -6 30 -10 70 -10 40 0 70 4 70 10 0 6 -30 10 -70 10
-40 0 -70 -4 -70 -10z"/>
<path d="M544 981 c-12 -12 3 -16 66 -16 40 0 70 4 70 10 0 9 -127 15 -136 6z"/>
<path d="M544 881 c-12 -12 3 -16 66 -16 39 0 70 3 70 7 0 7 -129 16 -136 9z"/>
<path d="M1050 990 c0 -92 2 -100 19 -100 14 0 21 8 23 28 3 24 8 28 52 33 51
5 76 26 76 62 0 49 -45 77 -126 77 l-44 0 0 -100z m125 40 c9 -30 -12 -50 -51
-50 -32 0 -34 2 -34 35 0 34 1 35 39 35 31 0 41 -4 46 -20z"/>
<path d="M1260 990 c0 -93 1 -100 20 -100 16 0 20 7 20 30 0 25 4 30 23 30 15
0 29 -11 40 -30 10 -17 27 -30 38 -30 23 0 23 4 3 35 -14 22 -14 26 6 53 45
60 -4 110 -107 111 l-43 1 0 -100z m119 42 c15 -28 -5 -52 -44 -52 -33 0 -35
2 -35 35 0 33 2 35 35 35 23 0 38 -6 44 -18z"/>
<path d="M1508 1074 c-57 -31 -66 -107 -19 -155 24 -24 38 -29 76 -29 38 0 52
5 76 29 85 85 -25 214 -133 155z m97 -39 c46 -45 19 -115 -44 -115 -67 0 -85
110 -21 133 29 10 41 7 65 -18z"/>
<path d="M1706 1043 c15 -27 33 -57 41 -68 7 -11 13 -34 13 -52 0 -26 4 -33
20 -33 16 0 20 7 20 38 0 25 12 56 35 95 40 66 40 67 20 67 -9 0 -28 -20 -43
-45 -15 -24 -30 -45 -34 -45 -3 0 -18 20 -32 45 -18 30 -34 45 -47 45 -20 0
-20 -2 7 -47z"/>
<path d="M1900 990 l0 -100 75 0 c60 0 75 3 75 15 0 12 -13 15 -55 15 -52 0
-55 1 -55 25 0 23 4 25 45 25 38 0 45 3 45 20 0 17 -7 20 -45 20 -38 0 -45 3
-45 19 0 17 8 20 53 23 38 2 52 7 52 18 0 12 -16 16 -72 18 l-73 3 0 -101z"/>
<path d="M2131 1076 c-91 -50 -53 -186 51 -186 53 0 90 22 71 41 -10 10 -16
10 -25 1 -34 -34 -108 3 -108 53 0 39 44 79 78 71 47 -11 55 -11 59 0 5 14
-40 34 -75 34 -15 -1 -38 -7 -51 -14z"/>
<path d="M2282 1073 c2 -12 14 -19 36 -21 l32 -3 0 -80 c0 -72 2 -79 20 -79
18 0 20 7 20 80 l0 80 30 0 c23 0 30 4 30 20 0 18 -7 20 -86 20 -76 0 -85 -2
-82 -17z"/>
<path d="M2530 1083 c-56 -22 -83 -89 -56 -141 20 -39 44 -52 96 -52 52 0 76
13 96 52 20 39 12 87 -20 117 -24 23 -87 36 -116 24z m81 -41 c45 -38 17 -122
-41 -122 -58 0 -86 84 -41 122 13 10 31 18 41 18 10 0 28 -8 41 -18z"/>
<path d="M1950 683 c0 -145 2 -161 18 -165 37 -9 51 2 54 45 3 39 5 42 34 45
28 3 36 -3 64 -41 31 -44 66 -62 90 -47 8 5 2 21 -19 51 l-32 43 26 20 c57 46
50 143 -13 179 -25 15 -60 21 -128 25 l-94 5 0 -160z m175 91 c25 -10 37 -51
24 -77 -17 -32 -28 -37 -81 -37 l-48 0 0 60 0 60 44 0 c24 0 52 -3 61 -6z"/>
<path d="M2290 680 l0 -160 126 0 c124 0 125 0 122 23 -3 21 -8 22 -90 25
l-88 3 0 39 0 40 75 0 c73 0 75 1 75 25 0 24 -2 25 -75 25 l-75 0 0 40 0 40
85 0 85 0 0 30 0 30 -120 0 -120 0 0 -160z"/>
</g>
</svg>
